<svg width="31" height="31" viewBox="0 0 31 31" fill="none" xmlns="http://www.w3.org/2000/svg">
<g id="Octicons-mark-github 1" clip-path="url(#clip0_14_138)">
<path id="Vector" fill-rule="evenodd" clip-rule="evenodd" d="M15.2266 0.657715C6.93906 0.657715 0.226562 7.37021 0.226562 15.6577C0.226562 22.2952 4.52031 27.9015 10.4828 29.889C11.2328 30.0202 11.5141 29.5702 11.5141 29.1765C11.5141 28.8202 11.4953 27.639 11.4953 26.3827C7.72656 27.0765 6.75156 25.464 6.45156 24.6202C6.28281 24.189 5.55156 22.8577 4.91406 22.5015C4.38906 22.2202 3.63906 21.5265 4.89531 21.5077C6.07656 21.489 6.92031 22.5952 7.20156 23.0452C8.55156 25.314 10.7078 24.6765 11.5703 24.2827C11.7016 23.3077 12.0953 22.6515 12.5266 22.2765C9.18906 21.9015 5.70156 20.6077 5.70156 14.8702C5.70156 13.239 6.28281 11.889 7.23906 10.839C7.08906 10.464 6.56406 8.92646 7.38906 6.86396C7.38906 6.86396 8.64531 6.47021 11.5141 8.40146C12.7141 8.06396 13.9891 7.89521 15.2641 7.89521C16.5391 7.89521 17.8141 8.06396 19.0141 8.40146C21.8828 6.45146 23.1391 6.86396 23.1391 6.86396C23.9641 8.92646 23.4391 10.464 23.2891 10.839C24.2453 11.889 24.8266 13.2202 24.8266 14.8702C24.8266 20.6265 21.3203 21.9015 17.9828 22.2765C18.5266 22.7452 18.9953 23.6452 18.9953 25.0515C18.9953 27.0577 18.9766 28.6702 18.9766 29.1765C18.9766 29.5702 19.2578 30.039 20.0078 29.889C25.9328 27.9015 30.2266 22.2765 30.2266 15.6577C30.2266 7.37021 23.5141 0.657715 15.2266 0.657715Z" fill="#1B1F23"/>
</g>
<defs>
<clipPath id="clip0_14_138">
<rect width="30" height="30" fill="white" transform="translate(0.226562 0.657715)"/>
</clipPath>
</defs>
</svg>
