<svg width="30" height="30" viewBox="0 0 30 30" fill="none" xmlns="http://www.w3.org/2000/svg">
<g id="Group">
<path id="Vector" d="M15.092 12.3091V17.951H23.0924C22.7411 19.7654 21.6869 21.3018 20.1058 22.3348L24.9303 26.0034C27.7413 23.4607 29.363 19.7258 29.363 15.2891C29.363 14.2561 29.2684 13.2627 29.0927 12.3092L15.092 12.3091Z" fill="#4285F4"/>
<path id="Vector_2" d="M6.76079 17.7308L5.67267 18.5471L1.82104 21.4872C4.26712 26.2418 9.28053 29.5263 15.0916 29.5263C19.1052 29.5263 22.4702 28.2284 24.9299 26.0035L20.1053 22.3349C18.7809 23.209 17.0916 23.7388 15.0916 23.7388C11.2266 23.7388 7.94269 21.1827 6.76686 17.7392L6.76079 17.7308Z" fill="#34A853"/>
<path id="Vector_3" d="M1.82088 8.42859C0.80737 10.3886 0.226318 12.6004 0.226318 14.9578C0.226318 17.3151 0.80737 19.5269 1.82088 21.487C1.82088 21.5001 6.76718 17.7257 6.76718 17.7257C6.46987 16.8516 6.29413 15.9246 6.29413 14.9576C6.29413 13.9907 6.46987 13.0637 6.76718 12.1896L1.82088 8.42859Z" fill="#FBBC05"/>
<path id="Vector_4" d="M15.0919 6.19037C17.2812 6.19037 19.2273 6.93201 20.7814 8.36238L25.0383 4.19059C22.4571 1.83321 19.1057 0.389526 15.0919 0.389526C9.28083 0.389526 4.26712 3.66078 1.82104 8.42861L6.76719 12.1899C7.94286 8.74644 11.2269 6.19037 15.0919 6.19037Z" fill="#EA4335"/>
</g>
</svg>
