<svg width="162" height="34" viewBox="0 0 162 34" fill="none" xmlns="http://www.w3.org/2000/svg">
<path d="M59.0728 26.1295H56.8606L56.6017 24.1055C55.6132 25.7294 53.9423 26.4825 51.9653 26.4825C47.5643 26.4825 44.6696 23.3288 44.6696 18.1512C44.6696 12.9971 47.5643 9.7728 52.2478 9.7728C55.5662 9.7728 58.3668 11.585 59.0964 15.0681H55.778C55.2837 13.3501 53.9423 12.4087 52.1536 12.4087C49.4707 12.4087 47.9174 14.5739 47.9174 18.1512C47.9174 21.7285 49.5413 23.8466 52.2713 23.8466C54.2482 23.8466 55.8486 22.7169 56.0604 20.0575H52.6008V17.6569H59.0728V26.1295ZM61.7543 26.1295V13.5148H64.7668V15.2093C65.5905 13.8443 66.9084 13.1618 68.5088 13.1618C71.027 13.1618 72.7451 14.668 72.7451 17.7275V26.1295H69.7326V18.3395C69.7326 16.6214 69.003 15.6565 67.4733 15.6565C65.8023 15.6565 64.7668 17.1156 64.7668 18.8101V26.1295H61.7543ZM78.4395 17.6569H75.4036C75.8037 14.8563 77.8512 13.1618 81.0284 13.1618C84.535 13.1618 86.3237 15.2329 86.3237 18.1512V23.0464C86.3237 24.5997 86.4649 25.4705 86.7002 26.1295H83.5701C83.4054 25.7058 83.3348 25.0939 83.3112 24.4114C82.2757 25.8706 80.7224 26.4825 79.2162 26.4825C76.745 26.4825 74.9799 25.2587 74.9799 22.8346C74.9799 21.1166 75.9449 19.8221 77.8747 19.1867C79.5457 18.6219 81.1696 18.4807 83.2877 18.4571V18.1512C83.2877 16.5273 82.5111 15.6565 80.8401 15.6565C79.4045 15.6565 78.6278 16.4567 78.4395 17.6569ZM78.0159 22.6698C78.0159 23.6348 78.769 24.2467 79.9928 24.2467C81.8521 24.2467 83.2877 22.7405 83.2877 20.8577V20.3164C79.0044 20.387 78.0159 21.399 78.0159 22.6698ZM99.915 26.1295L97.6321 17.6805L97.3968 16.1978L97.1144 17.6805L94.855 26.1295H91.113L87.6063 13.5148H90.8306L92.8546 22.411L93.1605 23.9407L93.5136 22.411L95.9376 13.5148H99.0678L101.492 22.411L101.798 23.8937L102.08 22.411L104.128 13.5148H107.211L103.681 26.1295H99.915ZM122.874 26.1295H120.662L120.403 24.1055C119.414 25.7294 117.744 26.4825 115.767 26.4825C111.366 26.4825 108.471 23.3288 108.471 18.1512C108.471 12.9971 111.366 9.7728 116.049 9.7728C119.367 9.7728 122.168 11.585 122.898 15.0681H119.579C119.085 13.3501 117.744 12.4087 115.955 12.4087C113.272 12.4087 111.719 14.5739 111.719 18.1512C111.719 21.7285 113.343 23.8466 116.073 23.8466C118.049 23.8466 119.65 22.7169 119.862 20.0575H116.402V17.6569H122.874V26.1295ZM133.393 20.8341V13.5148H136.405V26.1295H133.393V24.435C132.569 25.8235 131.275 26.4825 129.721 26.4825C127.227 26.4825 125.556 24.9763 125.556 21.9403V13.5148H128.568V21.3284C128.568 23.0464 129.274 23.9878 130.757 23.9878C132.381 23.9878 133.393 22.5286 133.393 20.8341ZM139.185 26.1295V13.5148H142.197V15.3505C143.021 13.8443 144.292 13.1618 145.657 13.1618C146.174 13.1618 146.645 13.303 146.88 13.5148V16.1272C146.48 16.0095 146.033 15.9624 145.492 15.9624C143.209 15.9624 142.197 17.3275 142.197 19.422V26.1295H139.185ZM156.307 20.8341V13.5148H159.319V26.1295H156.307V24.435C155.483 25.8235 154.189 26.4825 152.635 26.4825C150.141 26.4825 148.47 24.9763 148.47 21.9403V13.5148H151.482V21.3284C151.482 23.0464 152.188 23.9878 153.671 23.9878C155.295 23.9878 156.307 22.5286 156.307 20.8341Z" fill="#124359"/>
<path d="M21.5915 1.38606C20.9944 1.5746 18.3384 1.76874 18.0464 1.76874C15.3287 1.76874 12.3227 1.36365 10.4061 0.980969C7.80997 0.463876 5.18393 1.19751 3.1999 2.99147C1.34315 4.67155 0.51959 7.03674 0.575742 9.35526C0.717993 15.1851 2.83117 21.0804 4.50637 27.7708C4.99676 29.7272 5.74545 31.5081 7.10245 32.4601C8.19367 33.2274 9.59934 33.4421 11.3288 32.8111C13.4869 32.0215 16.2477 30.1155 18.0708 28.736C20.2064 31.7545 22.2017 33.2087 24.1501 33.1602C27.2778 33.0892 28.3971 30.0502 28.9698 27.7708C30.237 22.7138 32.4251 14.3974 32.9005 9.35526C33.4133 3.90992 27.7289 -0.555375 21.5896 1.38606H21.5915ZM15.6038 27.8567C15.0105 28.2786 13.2604 29.5816 11.7818 30.3432C9.80149 31.3625 8.43325 30.9518 7.82494 30.1528C7.41316 29.6133 6.98828 28.721 6.61768 27.2444C5.66122 23.4269 3.9018 17.7389 3.13065 13.169C2.68518 10.5294 2.75443 9.60353 2.74695 9.19658C2.71513 7.54263 3.29723 5.83268 4.66172 4.59875C6.12916 3.27148 8.06827 2.72826 9.98117 3.10908C11.7106 3.45256 14.2861 3.81098 16.7924 3.90992C14.8757 5.24652 13.8238 6.10896 11.6657 5.5564C11.0836 5.40892 10.4922 5.75801 10.3424 6.3367C10.1927 6.91727 10.5446 7.50716 11.1267 7.6565C16.3675 8.99497 17.002 4.65662 23.7795 3.13708C26.881 2.81973 29.5445 4.46621 30.3905 6.78659C32.7152 13.1709 21.5859 23.5986 15.6038 27.8567ZM26.8623 27.2444C25.5296 32.5666 22.9317 31.8609 19.7853 27.3882C23.2835 24.5283 26.9708 20.8564 29.5351 17.0948C28.6779 20.7126 27.5717 24.4181 26.8623 27.2444Z" fill="url(#paint0_linear_7_13)"/>
<defs>
<linearGradient id="paint0_linear_7_13" x1="-15.2797" y1="40.8699" x2="51.9687" y2="-11.1989" gradientUnits="userSpaceOnUse">
<stop stop-color="#4AC7B3"/>
<stop offset="1" stop-color="#0091FC"/>
</linearGradient>
</defs>
</svg>
